{"glyphs":{":":{"x_min":0,"x_max":200,"ha":200,"o":"m 166 325 q 166 296 146 276 q 127 256 98 256 q 70 256 52 276 q 33 297 33 325 q 33 354 52 375 q 70 395 99 395 q 127 395 147 375 q 166 354 166 325 z m 166 64 q 166 35 147 14 q 127 -8 99 -8 q 70 -8 52 14 q 33 35 33 64 q 33 95 52 114 q 70 134 100 134 q 129 134 147 114 q 166 93 166 64 z"},"$":{"x_min":0,"x_max":430,"ha":430,"o":"m 409 538 q 409 535 407 531 q 402 520 393 497 q 391 487 386 468 q 384 461 377 461 q 378 461 333 486 q 287 510 253 512 q 249 483 249 429 q 249 386 249 343 q 323 297 345 275 q 392 231 392 173 q 392 82 310 38 q 267 15 241 14 q 242 -27 242 -65 q 242 -79 240 -79 q 235 -79 226 -78 q 217 -77 212 -77 q 208 -77 198 -78 q 189 -80 186 -80 q 181 -80 181 -66 q 181 -33 182 4 q 102 4 56 19 q 48 22 47 31 q 46 44 44 70 q 43 75 39 92 q 36 105 36 113 q 36 121 43 121 q 46 121 48 121 q 57 118 72 111 q 111 96 150 96 l 157 96 q 170 96 183 97 q 185 153 187 264 q 113 312 90 333 q 42 380 42 437 q 42 500 86 543 q 127 582 192 595 q 192 603 192 662 q 192 668 197 668 l 251 668 q 257 668 256 597 q 281 596 341 577 q 409 555 409 538 z m 193 505 q 171 500 154 483 q 135 464 135 443 q 135 405 191 372 q 193 452 193 505 z m 296 156 q 296 197 246 227 l 243 106 q 296 122 296 156 z"},"?":{"x_min":0,"x_max":398,"ha":398,"o":"m 377 498 q 377 427 335 373 q 330 366 255 292 q 210 249 206 207 q 205 196 204 186 q 202 177 190 173 q 176 168 168 168 q 143 168 139 169 q 127 174 127 193 q 127 251 147 286 q 179 328 211 371 q 249 421 249 468 q 249 513 223 541 q 197 569 152 569 q 116 569 72 543 q 27 518 29 518 q 14 518 14 612 q 14 619 29 629 q 105 682 190 682 q 272 682 325 631 q 377 581 377 498 z m 238 55 q 238 28 220 7 q 202 -13 175 -13 q 148 -13 131 7 q 113 28 113 55 q 113 83 130 102 q 148 122 175 122 q 202 122 220 102 q 238 83 238 55 z"},"<":{"x_min":0,"x_max":356,"ha":356,"o":"m 336 448 q 336 445 331 439 q 301 401 234 356 q 171 313 121 294 q 116 292 109 287 q 112 284 120 280 q 171 256 231 215 q 297 169 328 132 q 334 124 334 120 q 334 120 320 91 q 305 63 303 58 q 301 52 298 52 q 295 52 287 59 q 198 133 168 155 q 108 199 37 233 q 26 238 26 250 l 26 317 q 26 329 39 334 q 68 345 162 406 q 187 422 227 457 q 272 494 291 508 q 298 513 302 513 q 310 513 336 448 z"},"'":{"x_min":0,"x_max":172,"ha":172,"o":"m 136 612 q 136 546 114 462 q 113 458 107 453 q 100 451 88 451 q 76 451 68 453 q 54 457 43 533 q 34 593 34 627 l 34 671 q 34 685 84 685 q 121 685 131 682 q 136 681 136 612 z"},"=":{"x_min":0,"x_max":436,"ha":436,"o":"m 404 410 q 404 371 399 335 q 398 329 394 329 q 361 329 297 331 q 233 334 201 334 q 174 334 121 332 q 67 330 41 330 q 31 330 31 340 q 31 392 36 412 q 38 420 46 420 q 74 420 131 417 q 188 415 217 415 q 247 415 307 417 q 366 418 396 418 q 404 418 404 410 z m 405 261 q 405 255 400 189 q 398 184 394 184 l 389 184 q 291 189 201 189 q 174 189 121 187 q 67 184 41 184 q 32 184 32 191 q 32 246 36 263 q 38 270 45 270 q 74 270 131 268 q 188 266 217 266 q 247 266 307 268 q 368 269 398 269 q 405 269 405 261 z"},"a":{"x_min":0,"x_max":554,"ha":554,"o":"m 524 442 q 524 440 523 433 q 504 321 504 240 q 504 235 516 21 l 517 14 q 517 0 504 0 q 490 0 463 -3 q 436 -6 423 -6 q 414 -6 409 28 q 404 62 399 62 q 396 62 373 43 q 344 20 319 7 q 281 -12 242 -12 q 147 -12 83 63 q 21 136 21 232 q 21 340 83 411 q 148 485 254 485 q 329 485 384 433 q 393 423 410 405 q 412 403 413 403 q 416 403 421 434 q 427 465 435 465 q 448 465 484 458 q 524 449 524 442 z m 400 238 q 400 298 364 341 q 327 387 268 387 q 209 387 170 341 q 133 297 133 238 q 133 179 170 135 q 209 90 268 90 q 325 90 364 136 q 400 180 400 238 z"},"L":{"x_min":0,"x_max":517,"ha":517,"o":"m 511 106 q 511 38 504 9 q 500 -5 487 -5 q 451 -5 378 -1 q 306 3 270 3 q 236 3 168 1 q 100 0 66 0 q 54 0 54 12 q 54 65 57 173 q 61 280 61 334 q 61 391 56 504 q 51 617 51 673 q 51 684 63 684 q 72 684 90 683 q 108 681 117 681 q 126 681 145 683 q 163 684 172 684 q 184 684 184 675 q 184 623 180 519 q 176 415 176 363 q 176 337 176 286 q 175 234 175 208 q 175 100 184 100 q 364 100 456 109 q 460 109 479 112 q 493 115 501 115 q 511 115 511 106 z"},"3":{"x_min":0,"x_max":471,"ha":471,"o":"m 446 167 q 446 77 378 30 q 319 -12 226 -12 q 115 -12 26 29 q 17 33 17 38 q 17 36 40 114 q 43 125 49 125 q 136 80 192 80 q 325 80 325 177 q 325 237 279 260 q 247 277 181 277 q 167 277 143 276 q 119 275 108 275 q 80 275 80 287 q 80 354 95 354 q 116 354 159 349 q 203 344 224 344 q 256 344 277 365 q 297 387 297 419 q 297 509 180 509 q 112 509 57 480 q 55 479 52 479 q 40 479 40 552 q 40 576 119 590 q 173 599 217 599 q 298 599 356 563 q 425 521 425 445 q 425 405 403 366 q 380 324 345 309 q 446 275 446 167 z"},";":{"x_min":0,"x_max":200,"ha":200,"o":"m 170 325 q 170 296 151 275 q 131 254 103 254 q 75 254 56 275 q 37 296 37 325 q 37 354 56 375 q 74 395 103 395 q 132 395 151 375 q 170 354 170 325 z m 166 99 q 166 20 98 -54 q 63 -91 40 -104 q 35 -107 32 -107 q 28 -107 9 -89 q -10 -71 -10 -66 q -10 -63 16 -31 q 42 1 44 30 q 44 30 44 74 q 44 90 56 95 q 72 98 103 105 q 105 105 127 112 q 144 117 152 117 q 166 117 166 99 z"},"J":{"x_min":0,"x_max":267,"ha":267,"o":"m 217 674 q 217 626 214 531 q 210 435 210 387 q 210 363 210 317 q 211 271 211 249 q 211 142 191 75 q 165 -15 97 -69 q 88 -76 84 -76 q 81 -76 76 -71 q 42 -32 8 -1 q 3 3 3 6 q 3 10 9 15 q 42 44 54 58 q 72 82 81 115 q 93 160 93 300 l 93 374 q 93 420 87 522 q 81 620 81 670 q 81 684 95 684 q 104 684 123 683 q 142 681 151 681 q 160 681 178 683 q 196 684 205 684 q 217 684 217 674 z"},"V":{"x_min":0,"x_max":619,"ha":619,"o":"m 589 441 q 589 420 493 240 q 433 127 372 14 q 365 0 356 0 l 258 0 q 251 0 244 14 q 243 17 128 233 q 30 418 30 435 q 30 474 32 551 q 35 628 35 667 q 35 685 47 685 q 56 685 74 684 q 92 682 101 682 q 110 682 128 684 q 146 685 155 685 q 166 685 166 676 q 166 636 161 557 q 156 477 156 437 q 156 404 307 141 q 347 209 394 298 q 462 426 462 448 q 462 486 459 562 q 457 638 457 675 q 457 685 468 685 q 477 685 495 684 q 513 682 522 682 q 531 682 549 684 q 566 685 575 685 q 586 685 587 676 q 587 679 587 657 q 587 621 588 549 q 589 477 589 441 z"},"\"":{"x_min":0,"x_max":303,"ha":303,"o":"m 270 675 l 270 626 q 270 541 247 477 q 244 468 224 468 q 199 468 196 475 q 194 479 186 517 q 178 554 178 559 l 178 675 q 178 678 181 684 q 193 687 225 687 q 237 687 267 684 q 270 678 270 675 z m 126 559 q 126 555 118 517 q 109 479 108 475 q 105 468 80 468 q 60 468 57 477 q 34 540 34 616 l 34 677 q 34 687 79 687 q 112 687 118 685 q 127 681 127 667 q 127 663 126 645 q 125 627 125 612 q 125 603 125 585 q 126 568 126 559 z"},"7":{"x_min":0,"x_max":441,"ha":441,"o":"m 427 541 q 427 524 426 519 q 426 516 406 490 q 340 402 292 259 q 245 120 231 19 q 229 7 228 3 q 224 -3 215 -6 q 201 -10 157 -10 q 112 -10 101 -6 q 95 -4 95 6 q 95 66 145 186 q 177 265 236 381 q 286 478 286 480 q 286 488 273 488 q 231 488 146 481 q 62 474 20 474 q 7 474 7 483 q 7 492 10 507 q 14 527 14 532 q 15 541 15 586 q 15 596 29 596 q 62 596 140 590 q 191 586 408 586 q 427 586 427 541 z"},"S":{"x_min":0,"x_max":467,"ha":467,"o":"m 442 636 q 432 620 415 587 q 410 572 396 544 q 393 540 388 540 q 389 540 341 557 q 293 574 263 574 q 173 574 173 495 q 173 451 236 418 q 342 363 353 355 q 416 305 416 219 q 416 110 330 47 q 252 -10 139 -10 q 86 -10 82 2 q 80 21 73 56 q 69 71 61 100 q 60 104 60 108 q 60 115 67 115 q 79 115 103 113 q 127 110 139 110 q 291 110 291 208 q 291 256 229 291 q 118 354 116 357 q 54 407 54 491 q 54 582 114 636 q 172 689 264 689 q 303 689 354 676 q 409 662 437 642 q 439 640 442 636 z"},"}":{"x_min":0,"x_max":341,"ha":341,"o":"m 320 237 q 320 227 311 227 q 284 227 262 215 q 232 199 232 145 q 232 125 235 98 q 237 76 255 22 q 271 -27 271 -51 q 271 -118 215 -143 q 178 -159 102 -159 q 49 -159 22 -151 q 15 -149 15 -147 q 15 -141 17 -130 q 19 -119 19 -113 q 19 -106 19 -94 q 18 -82 18 -75 q 18 -66 24 -66 q 25 -66 29 -67 q 84 -80 109 -80 q 159 -80 159 -41 q 159 -16 144 41 q 130 97 130 125 q 130 268 243 268 q 184 268 155 315 q 130 354 130 417 q 130 443 144 493 q 159 544 159 569 q 159 610 115 610 q 99 610 69 605 q 39 600 29 600 q 20 600 20 609 q 20 621 18 644 q 15 667 15 677 q 15 684 22 687 q 40 694 102 694 q 177 694 215 677 q 271 652 271 586 q 271 555 252 490 q 232 426 232 392 q 232 338 262 320 q 271 315 299 310 q 320 306 320 298 q 320 293 318 283 q 316 273 316 268 q 316 263 318 252 q 320 242 320 237 z"},"Z":{"x_min":0,"x_max":505,"ha":505,"o":"m 477 112 q 477 95 470 60 q 464 24 464 7 q 464 -4 452 -4 q 423 -4 365 -2 q 307 0 278 0 l 46 0 q 32 0 30 10 q 19 64 19 91 q 19 97 168 330 q 316 564 316 576 q 316 581 304 581 l 44 581 q 34 581 34 591 q 34 595 41 635 q 48 676 50 682 q 52 689 62 689 q 81 689 118 686 q 155 682 174 682 l 448 682 q 457 682 459 674 q 466 644 466 601 q 466 598 312 355 q 157 113 157 105 q 159 102 166 102 q 308 102 383 108 q 393 109 427 113 q 455 117 470 117 q 477 117 477 112 z"},"x":{"x_min":0,"x_max":434,"ha":434,"o":"m 416 9 q 416 2 406 0 q 398 -2 385 -1 q 365 0 367 0 q 329 0 321 9 q 291 53 230 139 q 218 155 217 155 q 212 155 162 80 q 111 4 100 2 q 89 0 31 0 q 19 0 19 9 l 19 62 q 19 67 84 146 q 149 225 149 232 q 149 240 84 318 q 19 396 19 404 l 19 456 q 19 466 31 466 q 43 466 67 464 q 92 462 104 462 q 111 462 116 455 q 145 411 204 324 q 216 308 217 308 q 218 308 228 321 q 256 359 321 457 q 326 464 332 464 q 344 464 368 465 q 392 466 404 466 q 416 466 416 456 l 416 405 q 416 396 351 318 q 286 240 286 232 q 286 227 351 148 q 416 70 416 61 z"},")":{"x_min":0,"x_max":351,"ha":351,"o":"m 296 280 q 296 -36 51 -158 q 39 -164 35 -164 q 30 -164 16 -124 q 1 -83 1 -74 q 1 -69 12 -62 q 75 -24 113 29 q 143 72 163 150 q 181 222 181 281 q 181 343 166 407 q 148 481 117 524 q 83 572 11 612 q -4 621 -4 631 q -4 638 11 676 q 26 714 32 714 q 35 714 47 708 q 167 652 233 532 q 296 419 296 280 z"},"&":{"x_min":0,"x_max":688,"ha":688,"o":"m 668 82 q 668 76 667 65 q 666 54 666 48 q 666 43 667 34 q 668 25 668 20 q 668 0 645 0 q 632 0 606 -1 q 580 -2 567 -2 q 526 -2 478 29 q 437 56 407 93 q 357 36 318 13 q 268 -17 201 -17 q 127 -17 82 35 q 38 84 38 159 q 38 240 83 296 q 119 341 200 387 q 172 461 172 513 q 172 595 215 644 q 261 693 342 693 q 407 693 452 661 q 502 625 502 562 q 502 493 444 439 q 413 411 326 361 q 371 287 416 234 q 471 303 502 325 q 549 358 621 358 q 642 358 648 355 q 661 351 661 334 q 661 291 638 257 q 616 255 594 253 q 567 250 551 243 q 503 221 470 173 q 510 128 540 113 q 574 95 629 95 q 653 95 653 95 q 668 93 668 82 z m 411 559 q 411 588 393 604 q 374 621 345 621 q 264 621 264 539 q 264 497 285 432 q 345 465 365 482 q 411 519 411 559 z m 357 153 q 274 250 238 312 q 145 253 145 171 q 145 131 168 105 q 192 78 231 78 q 291 78 357 153 z"},"_":{"x_min":0,"x_max":435,"ha":435,"o":"m 438 -115 q 438 -177 435 -195 q 434 -203 423 -203 q 385 -203 310 -201 q 235 -198 197 -198 q 165 -198 100 -201 q 35 -203 3 -203 q -10 -203 -10 -192 q -10 -152 -5 -115 q -4 -106 3 -106 q 38 -106 109 -108 q 180 -111 215 -111 q 251 -111 323 -109 q 395 -108 431 -108 q 438 -108 438 -115 z"},"v":{"x_min":0,"x_max":506,"ha":506,"o":"m 471 323 q 471 254 467 243 q 459 221 388 115 q 314 6 300 0 q 293 -3 259 -3 q 226 -3 216 0 q 202 4 126 110 q 53 213 44 236 q 32 267 32 331 q 32 351 33 391 q 34 431 34 451 q 34 462 45 462 q 61 462 93 460 q 125 459 141 459 q 150 459 150 449 q 150 434 148 403 q 146 373 146 357 q 146 312 151 275 q 153 256 200 184 q 248 112 259 112 q 270 112 312 183 q 354 252 357 270 q 361 294 361 354 q 361 370 358 402 q 354 435 354 451 q 354 458 362 458 q 378 458 409 460 q 440 461 456 461 q 471 461 471 323 z"},"O":{"x_min":0,"x_max":725,"ha":725,"o":"m 696 343 q 696 198 603 93 q 506 -15 363 -15 q 219 -15 123 93 q 30 197 30 343 q 30 487 124 592 q 220 701 363 701 q 506 701 603 592 q 696 488 696 343 z m 578 344 q 578 440 519 511 q 456 586 362 586 q 269 586 207 510 q 148 438 148 343 q 148 248 207 176 q 269 100 362 100 q 457 100 519 176 q 578 248 578 344 z"},"(":{"x_min":0,"x_max":351,"ha":351,"o":"m 354 631 q 354 621 339 612 q 268 572 233 524 q 202 481 185 407 q 169 343 169 281 q 169 222 187 150 q 207 71 237 29 q 275 -25 338 -62 q 349 -69 349 -74 q 349 -83 334 -124 q 320 -164 315 -164 q 311 -164 299 -158 q 54 -36 54 280 q 54 419 116 532 q 183 652 303 708 q 315 714 318 714 q 324 714 339 676 q 354 638 354 631 z"},"C":{"x_min":0,"x_max":593,"ha":593,"o":"m 589 113 q 589 107 580 96 q 485 -14 344 -14 q 198 -14 110 93 q 28 192 28 342 q 28 491 111 592 q 200 700 346 700 q 494 700 575 600 q 583 590 583 583 q 583 575 557 534 q 531 493 526 493 q 520 493 496 517 q 467 546 442 561 q 400 585 349 585 q 252 585 199 511 q 151 445 151 345 q 151 245 198 178 q 252 102 348 102 q 396 102 440 126 q 470 142 500 170 q 525 194 528 194 q 531 194 560 156 q 589 117 589 113 z"},"W":{"x_min":0,"x_max":892,"ha":892,"o":"m 863 435 q 863 431 765 226 q 732 155 665 13 q 659 0 652 0 l 564 0 q 555 0 549 13 q 513 98 445 281 q 411 191 340 13 q 334 0 325 0 l 238 0 q 230 0 224 13 q 190 84 123 226 q 30 420 30 435 q 30 475 32 556 q 35 636 35 676 q 35 685 47 685 q 56 685 73 684 q 91 682 100 682 q 108 682 125 683 q 142 684 150 684 q 160 684 160 677 q 160 637 156 557 q 151 478 151 438 q 151 413 250 212 q 282 146 285 146 q 286 146 288 149 q 293 161 312 212 q 348 307 385 428 q 386 440 386 505 q 386 534 385 592 q 383 649 383 678 q 383 685 393 685 q 402 685 421 684 q 439 682 449 682 q 458 682 474 684 q 491 685 499 685 q 510 685 510 677 q 510 646 508 585 q 506 523 506 492 q 506 442 507 431 q 508 407 581 217 q 588 195 606 155 q 606 153 608 152 q 611 152 643 217 q 739 414 739 439 q 739 479 734 559 q 730 638 730 678 q 730 685 734 685 q 744 685 763 684 q 782 682 792 682 q 801 682 819 684 q 837 685 846 685 q 856 685 858 679 q 858 680 858 666 q 858 627 860 550 q 863 474 863 435 z"},"A":{"x_min":0,"x_max":659,"ha":659,"o":"m 655 6 q 655 0 643 0 q 634 0 616 1 q 598 3 589 3 q 580 3 561 1 q 542 0 533 0 q 520 0 498 74 q 477 148 455 149 q 437 150 361 150 l 284 150 q 203 150 192 149 q 174 147 155 74 q 135 0 124 0 l 14 0 q 4 0 4 7 q 4 12 11 29 l 131 356 q 146 396 223 584 q 236 615 260 678 q 266 697 272 697 q 282 697 300 694 q 318 692 327 692 q 336 692 354 695 q 372 697 380 697 q 384 697 392 679 q 404 652 508 385 q 655 9 655 6 z m 427 275 q 427 290 383 402 q 341 512 323 546 q 222 288 222 276 q 222 259 259 256 q 261 256 307 256 l 357 256 q 427 256 427 275 z"},"f":{"x_min":0,"x_max":294,"ha":294,"o":"m 302 626 q 302 620 293 619 q 269 617 246 615 q 218 611 203 595 q 179 569 179 464 q 195 464 230 463 q 265 462 282 462 q 294 462 294 453 q 294 439 295 412 q 296 385 296 372 q 296 363 286 363 q 269 363 234 365 q 200 366 183 366 l 183 220 q 183 186 186 117 q 188 47 188 13 q 188 0 178 0 l 89 0 q 76 0 76 15 l 76 351 q 76 364 46 364 q 14 363 12 366 q 11 368 11 384 q 11 395 10 416 q 9 438 9 448 q 9 458 71 462 q 69 493 69 513 q 69 599 100 639 q 127 675 180 696 q 228 714 278 714 q 283 714 285 709 q 286 708 294 668 q 302 627 302 626 z"},"Q":{"x_min":0,"x_max":725,"ha":725,"o":"m 696 344 q 696 214 618 115 q 537 10 411 -6 q 429 -60 475 -104 q 478 -107 478 -110 q 478 -124 445 -126 q 445 -126 401 -126 q 342 -126 333 -124 q 308 -118 305 -5 q 181 20 104 119 q 30 216 30 344 q 30 487 124 592 q 221 701 363 701 q 505 701 602 592 q 696 487 696 344 z m 579 344 q 579 440 519 510 q 456 584 362 584 q 269 584 206 509 q 147 438 147 343 q 147 248 206 177 q 269 101 362 101 q 457 101 520 176 q 579 248 579 344 z"},"w":{"x_min":0,"x_max":729,"ha":729,"o":"m 705 350 q 705 258 695 235 q 681 203 623 106 q 559 2 546 -1 q 542 -2 507 -2 q 483 -2 479 -1 q 464 3 363 167 q 335 121 307 75 q 261 2 248 -1 q 244 -2 216 -2 q 187 -2 183 -1 q 168 2 106 105 q 48 203 36 235 q 25 264 25 350 q 25 422 30 448 q 32 459 42 459 q 57 459 86 458 q 115 457 130 457 q 139 457 139 442 q 139 431 138 409 q 137 388 137 377 q 137 292 142 257 q 146 226 219 128 q 228 116 229 116 q 230 116 238 127 q 301 219 310 253 q 316 276 316 358 q 316 375 314 407 q 312 440 312 456 q 312 467 321 467 l 414 467 q 422 467 422 454 q 422 438 420 407 q 419 375 419 360 q 419 273 422 260 q 425 247 468 183 q 511 120 517 120 q 519 120 526 132 q 588 226 593 258 q 597 284 597 347 q 597 366 594 401 q 591 436 591 451 q 591 458 601 458 q 616 458 645 459 q 673 460 688 460 q 699 460 701 450 q 705 431 705 350 z"},"-":{"x_min":0,"x_max":386,"ha":386,"o":"m 359 353 l 359 348 q 354 331 347 298 q 346 282 341 251 q 340 247 313 245 q 294 244 260 245 q 216 246 219 246 q 189 246 129 240 q 70 235 40 235 q 27 235 27 251 q 27 273 55 344 q 58 351 69 351 q 86 351 119 350 q 152 349 169 349 q 199 349 259 355 q 319 361 349 361 q 360 361 359 353 z"},"E":{"x_min":0,"x_max":538,"ha":538,"o":"m 513 98 q 513 90 509 76 q 505 57 504 53 q 502 36 497 2 q 495 -7 484 -7 q 479 -7 466 -5 q 406 4 280 4 q 244 4 172 2 q 101 0 65 0 q 49 0 49 14 q 49 69 55 178 q 61 288 61 343 q 61 398 55 550 q 54 589 50 667 l 49 674 q 49 685 62 685 q 96 685 165 683 q 233 681 267 681 q 300 681 365 683 q 430 685 463 685 q 486 685 488 671 q 498 606 498 591 q 498 580 487 580 q 446 580 362 584 q 277 589 235 589 q 195 589 184 578 q 174 567 174 525 l 174 452 q 174 422 175 417 q 180 402 201 402 q 207 402 217 403 q 229 403 234 403 q 330 403 406 406 q 436 407 476 411 q 486 412 486 402 q 486 387 483 354 q 479 322 479 306 q 479 297 464 297 q 458 297 421 301 q 394 304 298 304 q 217 304 196 302 q 176 300 173 281 q 174 285 174 244 l 174 171 q 174 121 189 108 q 202 98 250 98 l 304 98 q 338 98 496 110 l 503 110 q 513 111 513 98 z"},"s":{"x_min":0,"x_max":299,"ha":299,"o":"m 278 150 q 278 78 220 34 q 167 -6 92 -6 q 62 -6 59 -5 q 50 -1 50 19 q 50 30 48 51 q 45 73 45 83 q 45 89 54 91 q 60 93 72 91 q 87 90 86 90 q 179 90 179 146 q 179 173 138 196 q 72 232 62 240 q 22 275 22 331 q 22 404 77 445 q 127 482 203 482 q 210 482 213 476 q 216 469 225 436 q 234 403 234 396 q 234 391 225 389 q 194 385 162 381 q 125 371 125 340 q 125 318 164 295 q 223 263 238 248 q 278 210 278 150 z"},">":{"x_min":0,"x_max":356,"ha":356,"o":"m 331 250 q 331 238 320 233 q 195 172 70 59 q 67 56 59 52 q 22 116 22 120 q 22 142 117 207 q 200 264 237 280 q 242 282 248 287 q 245 290 236 294 q 93 355 26 439 q 21 445 21 448 q 21 450 35 477 q 49 503 51 509 q 53 514 55 514 q 57 514 66 508 q 107 472 195 406 q 246 373 255 367 q 295 343 318 334 q 331 329 331 317 z"},"l":{"x_min":0,"x_max":220,"ha":220,"o":"m 173 677 l 173 671 q 162 489 162 359 q 162 301 164 185 q 166 69 166 11 q 166 0 158 0 l 65 0 q 56 0 56 11 q 56 69 57 185 q 58 301 58 359 q 58 412 53 517 q 48 623 48 675 q 48 685 58 685 q 67 685 84 684 q 102 682 111 682 q 120 682 138 684 q 156 685 165 685 q 174 685 173 677 z"},"8":{"x_min":0,"x_max":458,"ha":458,"o":"m 439 162 q 439 80 376 31 q 318 -15 230 -15 q 132 -15 75 28 q 8 77 8 174 q 8 263 84 306 q 59 325 43 362 q 28 398 28 435 q 28 518 90 564 q 146 605 232 605 q 309 605 367 561 q 430 513 430 438 q 430 400 411 361 q 392 321 361 300 q 439 256 439 162 z m 330 432 q 330 466 302 490 q 275 515 235 515 q 188 515 162 496 q 135 478 135 448 q 135 409 191 380 q 216 366 286 344 q 330 381 330 432 z m 322 154 q 322 199 264 228 q 216 246 168 264 q 115 228 115 168 q 115 127 142 102 q 172 74 226 74 q 322 74 322 154 z"},"\\":{"x_min":0,"x_max":286,"ha":286,"o":"m 266 -16 q 266 -25 238 -40 q 212 -54 202 -54 l 197 -54 q 186 -30 159 70 q 148 110 74 406 q 53 485 19 644 q 24 653 49 669 q 73 685 83 684 l 88 684 q 104 642 185 327 q 266 10 266 -16 z"},"e":{"x_min":0,"x_max":482,"ha":482,"o":"m 463 262 q 463 226 432 214 q 411 206 130 185 q 136 142 177 112 q 216 83 261 83 q 338 83 403 133 q 411 139 418 146 q 422 146 424 145 q 425 144 442 111 q 459 78 459 75 q 459 72 451 64 q 379 -12 267 -12 q 154 -12 86 55 q 19 123 19 236 q 19 336 83 411 q 151 489 250 489 q 342 489 403 421 q 463 356 463 262 z m 347 292 q 347 333 315 364 q 283 395 243 395 q 198 395 163 359 q 128 323 128 278 q 128 268 146 268 q 218 268 319 282 q 347 286 347 292 z"},"b":{"x_min":0,"x_max":554,"ha":554,"o":"m 534 236 q 534 139 474 67 q 410 -9 315 -9 q 251 -9 203 23 q 184 40 164 56 q 159 55 157 27 q 155 -1 149 -1 l 46 -1 q 40 -1 40 5 q 40 5 41 14 q 49 92 49 313 q 49 403 41 578 q 36 689 36 676 q 36 688 49 690 q 66 690 101 692 q 108 692 129 695 q 146 698 157 698 q 165 698 165 687 q 165 670 163 636 q 160 602 160 585 q 160 560 158 509 q 156 458 156 432 q 156 414 163 414 q 166 414 170 419 q 224 486 312 486 q 413 486 476 410 q 534 339 534 236 z m 424 240 q 424 298 387 343 q 348 390 291 390 q 232 390 193 344 q 156 300 156 240 q 156 180 193 136 q 232 90 292 90 q 350 90 388 137 q 424 181 424 240 z"},"%":{"x_min":0,"x_max":736,"ha":736,"o":"m 713 182 q 713 110 672 55 q 627 -6 557 -6 q 487 -6 441 55 q 400 110 400 182 q 400 254 441 310 q 487 371 557 371 q 627 371 672 310 q 713 254 713 182 z m 517 585 q 517 581 513 573 q 469 481 384 297 q 345 210 266 -1 q 261 -15 256 -15 q 250 -15 231 -3 q 213 9 213 15 q 213 20 218 29 q 246 81 286 168 q 338 279 352 308 q 377 359 412 452 q 439 526 467 600 q 472 612 477 612 q 483 612 500 602 q 517 591 517 585 z m 336 420 q 336 348 295 292 q 250 232 180 232 q 110 232 64 292 q 23 348 23 420 q 23 493 64 548 q 110 609 180 609 q 250 609 295 548 q 336 493 336 420 z m 632 182 q 632 222 615 252 q 594 290 557 290 q 520 290 499 252 q 481 222 481 182 q 481 145 500 113 q 522 75 557 75 q 593 75 614 112 q 632 143 632 182 z m 255 420 q 255 459 238 491 q 217 528 180 528 q 144 528 122 490 q 104 459 104 420 q 104 383 123 351 q 146 313 180 313 q 216 313 237 350 q 255 381 255 420 z"},"m":{"x_min":0,"x_max":839,"ha":839,"o":"m 792 18 q 792 -1 781 -1 q 773 -1 759 0 q 744 2 736 2 q 728 2 711 1 q 694 0 686 0 q 676 0 676 23 q 676 45 677 90 q 679 135 679 157 q 679 281 678 295 q 674 345 658 364 q 639 385 590 385 q 559 385 521 355 q 480 325 479 295 q 477 257 477 156 q 477 132 479 84 q 481 36 481 12 q 481 -1 472 -1 q 463 -1 447 0 q 430 2 421 2 q 413 2 398 1 q 383 0 375 0 q 365 0 365 14 q 365 38 367 85 q 368 132 368 155 l 368 273 q 368 328 355 352 q 336 385 284 385 q 253 385 211 359 q 164 331 164 302 l 164 159 q 164 135 165 86 q 165 38 165 14 q 165 0 154 0 l 63 0 q 53 0 53 13 q 53 53 54 132 q 54 211 54 251 q 54 340 35 429 q 34 436 34 439 q 34 446 38 447 q 56 449 91 454 q 107 459 139 465 l 143 465 q 149 465 154 431 q 159 396 163 396 q 163 396 188 418 q 216 443 245 458 q 287 479 328 479 q 440 479 471 387 q 501 426 546 452 q 594 479 641 479 q 731 479 766 426 q 791 387 791 303 q 791 287 790 253 q 789 219 789 203 q 789 172 791 111 q 792 49 792 18 z"},"#":{"x_min":0,"x_max":664,"ha":664,"o":"m 639 450 q 639 437 634 415 q 628 387 621 387 q 620 388 617 388 q 597 391 484 395 q 473 349 448 257 q 550 259 597 259 q 607 259 607 250 q 607 222 599 191 q 597 182 590 182 q 590 182 586 183 q 566 186 428 190 q 416 142 392 40 q 387 13 373 -38 q 369 -50 360 -50 q 357 -50 353 -48 q 346 -44 332 -36 q 322 -32 312 -29 q 299 -24 299 -16 q 299 -6 356 191 l 317 191 q 258 191 233 190 q 216 115 178 -34 q 175 -45 166 -45 q 158 -45 131 -31 q 104 -17 104 -11 q 104 1 159 188 q 141 188 97 185 q 58 183 36 183 q 25 183 25 196 q 25 202 28 213 q 31 225 32 229 q 32 237 34 252 q 37 261 47 261 q 72 261 114 259 q 164 257 182 257 l 216 394 q 194 394 142 391 q 93 388 67 388 q 58 388 58 398 q 58 427 65 451 q 68 460 78 460 q 106 460 155 458 q 211 457 232 456 l 275 620 q 280 644 292 690 q 295 701 305 701 q 310 701 320 694 q 333 685 336 684 q 345 682 354 679 q 366 675 366 667 q 366 652 306 455 l 428 455 q 442 509 471 616 q 476 639 487 685 q 490 697 500 697 q 503 697 507 695 q 515 690 532 681 q 542 678 556 672 q 561 668 561 663 q 561 659 501 456 q 583 458 628 458 q 639 458 639 450 z m 412 395 q 391 396 367 396 l 289 396 q 280 365 253 256 l 377 256 q 390 302 412 395 z"},",":{"x_min":0,"x_max":215,"ha":215,"o":"m 185 116 q 185 66 168 28 q 157 3 109 -49 q 58 -107 39 -107 q 35 -107 16 -84 q -3 -62 -3 -56 q -3 -57 22 -22 q 48 13 50 36 q 50 33 50 87 q 50 106 103 120 q 146 131 174 131 q 185 131 185 116 z"},"n":{"x_min":0,"x_max":523,"ha":523,"o":"m 480 10 q 480 -1 470 -1 q 454 -1 422 0 q 390 0 374 0 q 365 0 365 14 q 365 38 367 87 q 368 136 368 160 q 368 180 368 219 q 367 257 367 277 q 367 333 351 355 q 332 383 279 383 q 254 383 211 355 q 165 327 165 304 l 165 11 q 165 -1 156 -1 q 140 -1 109 0 q 78 0 62 0 q 52 0 52 11 q 52 50 53 127 q 54 204 54 243 q 54 347 32 435 q 31 439 31 441 q 31 446 37 448 q 41 449 93 457 q 146 466 148 466 q 151 466 152 458 q 154 428 163 397 q 188 417 230 447 q 281 478 329 478 q 421 478 455 425 q 479 386 479 298 q 479 283 479 252 q 478 221 478 205 q 478 172 479 107 q 480 42 480 10 z"},"h":{"x_min":0,"x_max":520,"ha":520,"o":"m 476 17 q 476 -1 466 -1 q 451 -1 420 0 q 389 0 374 0 q 362 0 362 16 q 362 40 364 87 q 365 134 365 158 q 365 181 364 226 q 362 272 362 295 q 362 383 279 383 q 252 383 208 356 q 162 327 162 303 l 162 13 q 162 -1 152 -1 q 137 -1 106 0 q 76 0 61 0 q 50 0 50 13 l 50 249 q 50 307 43 494 q 42 552 35 666 q 34 672 34 674 q 34 682 40 684 q 48 687 95 687 q 105 687 126 691 q 146 694 156 694 q 162 694 162 685 q 162 639 158 547 q 155 455 155 409 q 155 398 159 397 q 184 418 223 448 q 271 478 324 478 q 416 478 451 423 q 476 383 476 296 q 476 281 475 250 q 474 218 474 203 q 474 172 475 110 q 476 48 476 17 z"},"z":{"x_min":0,"x_max":421,"ha":421,"o":"m 412 93 q 412 90 405 58 q 397 23 396 15 q 394 -2 387 -2 q 370 -2 341 0 q 309 2 296 3 q 263 4 202 4 q 155 4 97 0 q 25 -5 35 -5 q 25 -5 22 4 q 15 27 15 59 q 15 63 16 71 q 16 79 16 83 q 16 90 27 99 q 37 109 131 210 q 178 259 265 362 l 50 362 q 42 362 42 372 q 42 386 48 414 q 54 442 54 456 q 54 462 68 462 q 95 462 149 459 q 204 457 231 457 q 365 457 382 455 q 394 454 394 445 q 394 371 388 362 q 383 355 304 266 q 252 208 149 93 q 312 97 401 97 q 412 97 412 93 z"},"B":{"x_min":0,"x_max":611,"ha":611,"o":"m 578 211 q 578 126 527 65 q 473 1 389 1 q 358 1 295 2 q 232 4 201 4 q 178 4 132 2 q 86 0 63 0 q 51 0 51 11 q 51 65 56 173 q 61 280 61 334 q 61 391 56 504 q 51 618 51 674 q 51 685 63 685 q 106 685 194 685 q 281 684 325 684 q 428 684 489 646 q 563 600 563 502 q 563 468 543 432 q 524 396 496 377 q 482 368 482 365 q 482 362 496 354 q 533 333 556 294 q 578 254 578 211 z m 441 491 q 441 560 379 584 q 342 598 258 598 q 176 598 176 586 q 176 570 174 538 q 173 505 173 489 q 173 478 173 454 q 174 431 174 419 q 174 405 284 405 q 441 405 441 491 z m 454 216 q 454 275 401 296 q 367 310 296 310 q 173 310 173 297 l 173 217 q 173 199 174 163 q 175 127 175 109 q 175 104 206 102 q 237 99 299 99 q 376 99 410 119 q 454 146 454 216 z"},"K":{"x_min":0,"x_max":596,"ha":596,"o":"m 591 23 q 591 0 577 0 l 465 0 q 451 0 391 104 q 341 192 324 231 q 308 269 305 273 q 291 297 271 299 q 265 299 238 299 q 177 299 177 284 q 177 239 180 150 q 183 61 183 16 q 183 0 171 0 q 162 0 143 1 q 125 3 115 3 q 106 3 89 1 q 72 0 63 0 q 51 0 51 11 q 51 65 56 173 q 61 280 61 334 q 61 391 56 504 q 51 618 51 674 q 51 685 63 685 q 72 685 90 684 q 108 682 117 682 q 126 682 144 684 q 161 685 170 685 q 181 685 181 676 q 181 635 178 551 q 176 468 176 426 q 176 407 178 402 q 182 393 198 393 q 293 393 337 428 q 375 459 408 543 q 433 608 457 674 q 460 682 472 685 q 480 687 524 687 q 578 687 578 672 q 578 663 555 593 q 529 511 487 448 q 459 406 413 363 q 401 353 401 344 q 401 335 441 257 q 475 189 503 148 q 534 110 589 32 q 591 28 591 23 z"},"R":{"x_min":0,"x_max":594,"ha":594,"o":"m 579 4 q 579 0 571 0 q 562 0 542 1 q 523 3 514 3 q 504 3 484 1 q 463 0 453 0 q 442 0 436 12 q 420 45 347 218 q 340 235 312 239 q 305 240 267 240 q 200 240 187 238 q 177 236 177 213 q 177 179 180 111 q 183 42 183 9 q 183 -1 173 -1 q 164 -1 144 1 q 124 3 114 3 q 105 3 88 1 q 71 0 63 0 q 51 0 51 11 q 51 65 56 174 q 61 283 61 337 q 61 491 50 666 l 49 674 q 49 684 70 684 q 112 684 196 686 q 279 688 321 688 q 429 688 495 636 q 567 579 567 474 q 567 402 547 360 q 527 316 471 277 q 462 271 462 265 q 462 258 520 135 q 579 12 579 4 z m 445 447 q 445 535 394 565 q 356 587 259 587 q 180 587 178 574 q 175 548 175 433 l 175 340 q 176 339 181 338 q 190 337 210 335 q 256 333 310 333 q 445 333 445 447 z"},"T":{"x_min":0,"x_max":513,"ha":513,"o":"m 505 593 q 505 580 496 580 q 482 580 323 586 q 319 437 319 347 q 319 291 323 179 q 327 66 327 10 q 327 0 313 0 q 304 0 286 1 q 268 3 259 3 q 250 3 232 1 q 214 0 205 0 q 193 0 193 12 q 193 68 198 179 q 202 291 202 347 q 202 434 197 586 q 71 578 12 578 q 6 578 6 583 q 6 592 11 608 q 16 630 17 634 q 18 651 24 681 q 26 688 32 688 l 38 687 q 211 677 266 677 q 315 677 426 684 q 501 689 489 689 q 501 689 503 680 q 502 686 502 633 q 502 626 503 613 q 505 600 505 593 z"},"P":{"x_min":0,"x_max":624,"ha":624,"o":"m 604 432 q 604 317 542 249 q 478 178 365 178 q 337 178 281 180 q 224 182 196 182 q 180 182 180 162 q 180 136 183 84 q 187 33 187 7 q 187 -1 177 -1 q 167 -1 146 1 q 125 3 115 3 q 106 3 89 1 q 72 0 64 0 q 52 0 52 15 q 52 68 56 176 q 61 283 61 337 q 61 489 50 664 l 49 671 q 49 682 62 682 q 88 682 141 682 q 194 681 221 681 q 244 681 290 683 q 336 685 359 685 q 467 685 536 612 q 604 540 604 432 z m 481 425 q 481 498 441 542 q 400 588 328 588 q 306 588 248 584 q 182 580 180 576 q 177 570 177 408 q 177 388 178 347 q 179 306 179 285 q 179 281 190 278 q 217 273 339 273 q 407 273 445 315 q 481 356 481 425 z"},"|":{"x_min":0,"x_max":245,"ha":245,"o":"m 167 -46 q 167 -56 161 -57 q 108 -68 86 -68 q 82 -68 82 -59 l 82 316 q 82 375 80 493 q 77 611 77 670 q 77 695 130 693 l 152 693 q 161 693 162 680 q 164 661 162 628 q 161 585 161 577 l 161 328 q 161 274 164 141 q 167 18 167 -46 z"},"t":{"x_min":0,"x_max":342,"ha":342,"o":"m 322 90 q 322 79 320 61 q 317 38 317 31 q 316 22 315 20 q 313 17 306 13 q 266 -6 180 -6 q 66 -6 66 98 q 66 139 68 222 q 70 306 70 347 q 70 367 50 369 q 32 369 14 369 q 4 372 4 409 q 4 423 6 439 q 7 451 21 453 q 34 453 45 454 q 68 455 68 474 q 68 493 67 533 q 65 573 65 593 q 65 629 79 629 q 83 629 171 614 q 182 612 182 603 q 182 582 179 539 q 176 496 176 474 q 176 460 189 460 l 306 460 q 314 460 314 454 q 314 448 313 435 q 311 422 311 416 q 311 409 312 394 q 312 378 312 371 q 312 362 298 362 q 279 362 239 365 q 200 367 180 367 q 176 367 174 339 q 172 305 172 242 l 172 169 q 172 127 180 111 q 191 85 228 85 q 243 85 272 92 q 302 99 316 99 q 322 99 322 90 z"},"M":{"x_min":0,"x_max":790,"ha":790,"o":"m 737 12 q 737 0 725 0 q 716 0 698 1 q 681 3 672 3 q 663 3 645 1 q 627 0 618 0 q 606 0 606 16 q 606 78 610 202 q 614 326 614 388 q 614 397 610 397 q 605 397 603 392 q 578 339 485 108 q 470 63 442 -3 q 438 -9 407 -9 q 361 -9 356 -1 q 339 39 309 110 q 268 207 184 398 q 183 401 178 405 q 174 402 174 394 q 174 331 176 205 q 178 79 178 16 q 178 0 166 0 q 158 0 141 1 q 124 3 115 3 q 106 3 89 1 q 72 0 63 0 q 51 0 51 9 q 51 63 56 172 q 61 280 61 334 q 61 390 56 503 q 51 615 51 671 q 51 681 62 682 q 128 691 162 691 q 167 691 176 671 q 294 411 379 207 q 399 159 403 159 q 408 159 424 198 q 490 356 608 668 q 615 687 624 687 q 641 687 674 685 q 708 683 724 683 q 736 683 736 671 q 736 615 733 503 q 729 390 729 334 q 729 280 733 173 q 737 65 737 12 z"},"g":{"x_min":0,"x_max":520,"ha":520,"o":"m 480 455 q 480 396 479 279 q 478 162 478 103 q 478 -13 428 -68 q 376 -127 261 -127 q 150 -127 82 -85 q 71 -78 71 -73 q 71 -79 86 -1 q 87 7 93 7 q 95 7 99 5 q 172 -37 246 -37 q 294 -37 326 -16 q 363 9 363 55 q 363 65 361 101 q 307 35 223 35 q 133 35 75 100 q 19 163 19 254 q 19 347 73 412 q 130 481 221 481 q 302 481 349 419 q 357 409 360 409 q 364 409 364 417 q 364 424 363 438 q 362 452 362 458 q 362 488 368 488 q 373 488 421 479 q 469 470 473 468 q 480 465 480 455 z m 363 254 q 363 309 333 347 q 300 388 247 388 q 194 388 162 346 q 132 308 132 254 q 132 201 162 162 q 195 120 247 120 q 299 120 332 162 q 363 201 363 254 z"},"j":{"x_min":0,"x_max":221,"ha":221,"o":"m 180 585 q 180 526 112 526 q 83 526 64 541 q 44 557 44 585 q 44 612 64 630 q 84 646 112 646 q 140 646 159 630 q 180 612 180 585 z m 174 453 q 174 421 171 356 q 168 292 168 259 q 168 223 169 152 q 170 80 170 44 q 170 -97 43 -133 q 7 -144 -10 -144 q -18 -144 -20 -134 q -21 -127 -21 -113 q -19 -95 -19 -97 q -19 -91 -21 -78 q -22 -65 -22 -59 q -22 -50 -16 -49 q 33 -40 46 -27 q 63 -10 63 39 q 63 74 61 144 q 59 214 59 249 q 59 318 48 443 l 47 448 q 47 455 56 457 q 59 458 109 462 q 160 466 166 466 q 174 466 174 453 z"},"i":{"x_min":0,"x_max":220,"ha":220,"o":"m 177 584 q 177 524 110 524 q 42 524 42 584 q 42 611 63 628 q 83 645 110 645 q 137 645 157 628 q 177 611 177 584 z m 173 452 q 173 414 169 338 q 164 262 164 224 q 164 188 166 117 q 167 46 167 11 q 167 1 158 1 l 63 1 q 53 1 53 21 q 53 55 54 122 q 56 190 56 224 q 56 262 51 338 q 45 415 45 453 q 45 461 55 461 q 64 461 82 458 q 101 456 110 456 q 119 456 137 458 q 156 461 165 461 q 173 461 173 452 z"},"y":{"x_min":0,"x_max":476,"ha":476,"o":"m 461 340 q 461 257 456 240 q 450 218 335 49 q 221 -121 199 -141 q 180 -159 73 -159 q 61 -159 57 -156 q 53 -153 40 -121 q 27 -88 27 -82 q 27 -71 53 -71 q 108 -71 134 -55 q 143 -50 160 -21 q 178 7 178 17 q 178 30 107 120 q 33 215 24 240 q 17 260 17 336 q 17 354 18 392 q 18 429 18 448 q 18 459 30 459 q 45 459 76 457 q 106 455 122 455 q 130 455 130 445 q 130 431 128 404 q 127 376 127 363 q 127 303 131 274 q 134 255 184 182 q 234 108 246 108 q 254 108 299 180 q 343 253 346 270 q 350 294 350 359 q 350 373 347 401 q 344 428 344 442 q 344 454 352 454 q 368 454 399 456 q 431 458 446 458 q 461 458 461 340 z"},"@":{"x_min":0,"x_max":621,"ha":621,"o":"m 569 367 q 569 326 544 250 q 515 161 485 161 q 445 161 439 186 q 435 205 430 205 q 431 205 401 187 q 372 169 343 169 q 278 169 240 217 q 204 261 204 328 q 204 400 244 448 q 286 498 357 498 q 398 498 434 475 q 471 451 471 451 q 482 451 482 466 q 482 527 441 576 q 398 626 338 626 q 232 626 165 534 q 104 451 104 342 q 104 229 164 148 q 231 59 340 59 q 353 59 353 51 l 353 -5 q 353 -15 340 -15 q 199 -15 110 95 q 28 198 28 342 q 28 477 113 584 q 205 699 336 699 q 462 699 522 590 q 569 505 569 367 z m 469 340 q 469 376 444 400 q 419 424 383 424 q 345 424 321 398 q 296 373 296 335 q 296 299 313 273 q 333 243 367 243 q 409 243 439 271 q 469 299 469 340 z"},".":{"x_min":0,"x_max":215,"ha":215,"o":"m 182 72 q 182 40 160 15 q 139 -9 107 -9 q 75 -9 54 16 q 33 40 33 72 q 33 104 54 128 q 75 151 107 151 q 139 151 161 127 q 182 104 182 72 z"},"p":{"x_min":0,"x_max":564,"ha":564,"o":"m 538 235 q 538 136 476 63 q 410 -13 313 -13 q 252 -13 207 24 q 187 43 166 63 q 163 62 162 55 q 162 52 162 0 l 161 -137 q 161 -153 150 -153 q 75 -153 61 -151 q 50 -149 50 -138 q 50 -76 51 49 q 52 174 52 237 q 52 352 37 452 q 36 458 36 460 q 36 465 41 467 q 60 468 95 472 q 143 481 149 481 q 157 481 160 452 q 161 432 162 413 q 162 409 165 405 q 168 407 173 412 q 241 482 311 482 q 408 482 474 406 q 538 333 538 235 z m 424 237 q 424 295 387 340 q 349 387 291 387 q 234 387 198 338 q 165 294 165 236 q 165 176 199 132 q 237 85 295 85 q 351 85 389 134 q 424 180 424 237 z"},"X":{"x_min":0,"x_max":573,"ha":573,"o":"m 548 6 q 548 0 537 0 l 458 0 q 453 0 452 0 q 445 2 368 122 q 291 241 289 241 q 280 235 202 116 q 127 0 120 0 l 39 0 q 28 0 28 8 l 28 78 q 28 87 120 209 q 211 331 211 341 q 211 352 120 475 q 29 598 29 605 l 29 680 q 29 687 42 687 q 56 687 83 686 q 110 685 124 685 q 126 685 142 663 q 188 590 281 447 q 283 443 289 439 q 296 443 374 565 q 450 685 457 685 l 534 685 q 547 685 547 678 l 547 603 q 547 591 456 470 q 365 349 365 342 q 365 334 456 210 q 548 85 548 76 z"},"*":{"x_min":0,"x_max":356,"ha":356,"o":"m 333 521 q 333 510 290 486 q 247 461 247 454 q 247 446 265 405 q 284 364 284 348 q 284 341 275 335 q 267 329 259 329 q 250 329 218 366 q 185 403 179 403 q 174 403 142 366 q 111 329 103 329 q 93 329 85 336 q 77 343 77 352 q 77 360 94 406 q 111 452 111 451 q 111 460 65 486 q 19 511 19 523 q 19 546 34 546 q 49 546 79 542 q 109 539 124 539 q 140 539 146 588 q 149 619 153 651 q 157 663 179 663 q 200 663 203 652 q 207 620 210 588 q 216 540 231 540 q 246 540 275 542 q 305 544 320 544 q 325 544 329 535 q 333 527 333 521 z"},"Y":{"x_min":0,"x_max":587,"ha":587,"o":"m 572 501 q 572 473 485 354 q 427 279 370 204 q 356 186 356 166 q 356 140 359 87 q 361 35 361 9 q 361 0 349 0 l 233 0 q 223 0 223 14 q 223 39 227 90 q 230 141 230 166 q 230 188 218 205 q 183 250 113 342 q 53 423 27 466 q 18 480 18 494 q 17 556 17 672 q 17 685 29 685 q 37 685 53 684 q 70 682 78 682 q 88 682 107 684 q 127 685 137 685 q 146 685 146 677 q 146 650 143 595 q 140 541 140 513 q 140 484 295 307 q 332 349 379 410 q 445 495 445 512 q 445 539 441 592 q 437 646 437 672 q 437 685 448 685 q 457 685 475 684 q 493 682 502 682 q 511 682 530 684 q 549 685 558 685 q 570 685 570 669 q 570 641 571 585 q 572 529 572 501 z"},"c":{"x_min":0,"x_max":402,"ha":402,"o":"m 391 443 q 391 432 379 395 q 368 358 364 358 q 342 368 320 377 q 297 387 271 387 q 211 387 171 343 q 131 298 131 238 q 131 178 171 135 q 212 90 271 90 q 304 90 335 106 q 367 122 363 122 q 370 122 377 81 q 385 44 385 30 q 385 15 328 0 q 280 -12 257 -12 q 156 -12 87 63 q 19 136 19 238 q 19 341 85 414 q 154 488 256 488 q 324 488 381 453 q 391 447 391 443 z"},"!":{"x_min":0,"x_max":232,"ha":232,"o":"m 182 561 q 182 438 164 335 q 157 296 145 219 q 143 200 119 200 q 105 200 100 202 q 92 205 90 217 q 60 363 60 404 l 60 667 q 60 686 66 686 q 75 686 93 684 q 111 681 120 681 q 129 681 148 684 q 166 686 175 686 q 181 686 181 668 q 181 649 182 614 q 182 579 182 561 z m 184 57 q 184 28 167 7 q 149 -13 120 -13 q 91 -13 74 8 q 57 28 57 57 q 57 86 74 105 q 91 125 120 125 q 148 125 166 105 q 184 86 184 57 z"},"/":{"x_min":0,"x_max":286,"ha":286,"o":"m 270 654 q 270 651 268 642 q 237 526 178 295 q 159 220 122 63 q 114 25 95 -48 q 92 -58 87 -58 q 22 -32 18 -29 q 16 -28 16 -24 q 16 -19 19 -10 q 52 104 112 348 q 137 458 192 678 q 195 688 200 688 q 203 688 237 673 q 270 658 270 654 z"},"[":{"x_min":0,"x_max":359,"ha":359,"o":"m 346 -85 q 346 -95 345 -116 q 344 -137 344 -146 q 344 -156 334 -156 q 312 -156 267 -154 q 222 -152 199 -152 q 179 -152 139 -153 q 99 -155 79 -155 q 65 -155 65 -136 q 65 -73 70 53 q 74 179 74 242 q 74 313 68 457 q 62 601 62 672 q 62 691 77 691 q 97 691 138 689 q 179 688 199 688 q 222 688 267 689 q 312 691 334 691 q 345 691 345 681 q 345 671 346 652 q 346 633 346 623 q 346 612 336 612 q 316 612 275 615 q 234 619 213 619 q 205 619 202 618 q 189 616 188 601 q 187 584 183 459 q 179 291 179 242 q 179 166 182 46 q 182 8 186 -67 q 188 -80 193 -83 q 197 -84 212 -84 q 233 -84 274 -81 q 315 -77 336 -77 q 346 -77 346 -85 z"},"6":{"x_min":0,"x_max":513,"ha":513,"o":"m 487 213 q 487 109 427 48 q 367 -13 263 -13 q 151 -13 89 66 q 33 138 33 253 q 33 394 133 498 q 233 601 374 601 q 383 601 387 591 q 412 522 412 521 q 412 507 394 507 q 326 507 272 479 q 203 443 176 384 q 172 376 172 372 q 172 366 177 366 q 207 377 235 389 q 267 399 297 399 q 380 399 434 348 q 487 296 487 213 z m 382 211 q 382 260 351 292 q 319 324 270 324 q 146 324 146 224 q 146 167 175 125 q 208 76 262 76 q 382 76 382 211 z"},"r":{"x_min":0,"x_max":333,"ha":333,"o":"m 329 458 q 329 405 322 361 q 320 350 312 350 q 302 350 281 352 q 260 354 250 354 q 188 354 171 319 q 161 298 161 232 l 161 178 q 161 151 163 95 q 165 40 165 12 q 165 -1 154 -1 q 139 -1 108 0 q 77 0 62 0 q 51 0 51 12 q 51 52 52 131 q 53 211 53 251 q 53 372 31 445 q 30 449 30 451 q 30 457 36 459 q 54 461 87 465 q 140 475 136 475 q 144 475 146 446 q 148 417 155 417 q 156 417 157 418 q 177 431 197 443 q 219 457 242 463 q 261 469 291 469 q 329 469 329 458 z"},"2":{"x_min":0,"x_max":485,"ha":485,"o":"m 472 90 q 472 76 471 46 q 469 17 469 2 q 469 -9 453 -9 q 458 -9 407 -5 q 355 -1 254 -1 q 219 -1 149 -2 q 79 -4 44 -4 q 33 -4 30 6 l 17 76 q 17 82 51 88 q 89 95 99 103 q 167 162 232 243 q 317 348 317 402 q 317 446 281 475 q 247 502 202 502 q 159 502 115 485 q 85 473 56 454 q 30 437 30 437 q 26 437 25 437 q 20 439 19 454 q 19 466 16 488 q 6 532 6 524 q 6 528 13 533 q 52 563 114 582 q 173 600 225 600 q 315 600 373 558 q 439 511 439 424 q 439 329 267 158 q 248 136 207 94 q 220 93 239 93 q 334 93 458 105 l 462 105 q 472 105 472 90 z"},"{":{"x_min":0,"x_max":341,"ha":341,"o":"m 329 -147 q 329 -149 322 -151 q 295 -159 242 -159 q 167 -159 129 -143 q 73 -118 73 -51 q 73 -27 89 22 q 106 76 109 98 q 112 125 112 145 q 112 199 82 215 q 60 227 33 227 q 24 227 24 237 q 24 242 26 252 q 28 263 28 268 q 28 273 26 283 q 24 293 24 298 q 24 306 45 310 q 73 315 82 320 q 111 338 111 392 q 111 426 92 490 q 73 555 73 586 q 73 652 129 677 q 167 694 242 694 q 304 694 322 687 q 329 684 329 677 q 329 667 327 644 q 324 621 324 609 q 324 600 315 600 q 306 600 276 605 q 246 610 229 610 q 186 610 186 569 q 186 544 200 493 q 214 443 214 417 q 214 354 189 315 q 160 268 101 268 q 214 268 214 125 q 214 97 199 41 q 185 -16 185 -41 q 185 -80 235 -80 q 271 -80 315 -67 q 318 -66 320 -66 q 324 -66 326 -77 q 327 -84 326 -97 q 325 -115 325 -113 q 325 -119 327 -130 q 329 -141 329 -147 z"},"9":{"x_min":0,"x_max":513,"ha":513,"o":"m 480 328 q 480 178 377 75 q 274 -28 124 -28 q 114 -28 111 -19 q 87 42 87 55 q 87 66 106 66 q 179 66 240 97 q 274 114 306 150 q 343 191 343 225 q 343 229 339 229 q 336 229 328 224 q 276 193 216 193 q 131 193 79 246 q 26 298 26 383 q 26 485 87 543 q 147 599 250 599 q 364 599 425 519 q 480 446 480 328 z m 367 369 q 367 426 338 465 q 307 509 252 509 q 133 509 133 383 q 133 333 164 301 q 195 268 244 268 q 294 268 329 293 q 367 321 367 369 z"}," ":{"x_min":0,"x_max":250,"ha":250,"o":""},"I":{"x_min":0,"x_max":237,"ha":237,"o":"m 185 10 q 185 0 171 0 q 162 0 144 1 q 126 3 117 3 q 108 3 90 1 q 72 0 63 0 q 51 0 51 11 q 51 67 56 179 q 61 291 61 347 q 61 401 56 510 q 51 619 51 673 q 51 685 62 685 q 71 685 90 684 q 109 682 119 682 q 128 682 146 684 q 163 685 172 685 q 185 685 185 675 q 185 621 181 511 q 177 402 177 347 q 177 291 181 179 q 185 66 185 10 z"},"H":{"x_min":0,"x_max":716,"ha":716,"o":"m 667 11 q 667 0 652 0 q 644 0 626 1 q 609 3 600 3 q 591 3 572 1 q 553 0 544 0 q 533 0 533 11 q 533 55 535 143 q 538 231 538 275 q 538 294 527 297 q 512 301 358 301 q 204 301 189 297 q 178 294 178 275 q 178 232 181 146 q 183 59 183 16 q 183 0 171 0 q 162 0 143 1 q 125 3 115 3 q 106 3 89 1 q 72 0 63 0 q 51 0 51 11 q 51 65 56 173 q 61 280 61 334 q 61 391 56 504 q 51 618 51 674 q 51 685 63 685 q 72 685 90 684 q 108 682 117 682 q 126 682 145 684 q 163 685 172 685 q 183 685 183 676 q 183 634 179 550 q 176 466 176 424 q 176 410 186 407 q 198 403 358 403 q 514 403 529 407 q 540 410 540 428 q 540 469 537 552 q 535 634 535 675 q 535 685 546 685 q 555 685 573 684 q 591 682 600 682 q 609 682 626 684 q 644 685 653 685 q 666 685 666 674 q 666 618 661 504 q 656 391 656 334 q 656 280 661 173 q 667 65 667 11 z"},"4":{"x_min":0,"x_max":500,"ha":500,"o":"m 482 133 q 482 124 471 124 q 454 125 421 125 q 410 125 408 124 q 404 121 404 110 q 404 93 406 58 q 409 24 409 7 q 409 -4 397 -6 q 380 -9 340 -9 q 271 -9 271 2 q 271 16 277 56 q 282 95 282 114 q 282 125 274 125 q 234 125 156 123 q 77 120 37 120 q 8 120 8 180 q 8 228 17 239 q 51 277 114 357 q 192 467 236 533 q 250 555 278 597 q 286 607 293 607 q 327 607 396 582 q 411 577 411 564 q 411 539 407 489 q 404 439 404 414 q 404 392 403 337 q 402 288 403 260 l 403 220 q 416 220 440 222 q 465 224 477 224 q 481 224 481 216 q 481 202 481 175 q 482 147 482 133 z m 300 481 q 300 485 297 487 q 292 487 284 470 q 279 459 274 449 q 189 336 105 221 q 107 215 145 215 l 165 215 q 246 215 286 218 q 287 278 288 338 q 290 415 296 455 q 300 479 300 481 z"},"~":{"x_min":0,"x_max":487,"ha":487,"o":"m 479 302 q 479 292 410 252 q 357 222 317 222 q 287 222 246 240 q 206 258 186 258 q 167 258 128 234 q 88 209 86 209 q 83 209 55 242 q 24 277 20 281 q 16 285 16 287 q 16 296 90 340 q 142 371 177 371 q 205 371 240 352 q 276 332 300 332 q 327 332 371 359 q 415 385 415 385 q 419 385 449 346 q 479 307 479 302 z"},"D":{"x_min":0,"x_max":680,"ha":680,"o":"m 652 346 q 652 209 574 109 q 489 0 356 0 q 331 0 280 2 q 229 4 203 4 q 180 4 134 2 q 88 0 65 0 q 53 0 53 12 q 53 65 57 173 q 61 280 61 334 q 61 391 57 504 q 53 618 53 675 q 53 685 66 685 q 84 685 120 685 q 156 684 174 684 q 190 684 225 685 q 259 685 276 685 q 446 685 529 621 q 588 575 621 498 q 652 425 652 346 z m 532 346 q 532 452 472 518 q 410 587 305 587 q 219 587 235 588 q 178 585 178 567 q 178 529 177 454 q 175 379 175 342 q 175 305 177 230 q 178 156 178 119 q 178 101 237 98 q 229 98 308 98 q 364 98 397 110 q 438 125 471 164 q 532 238 532 346 z"},"^":{"x_min":0,"x_max":467,"ha":467,"o":"m 445 177 q 444 173 410 157 q 408 156 390 145 q 374 135 372 135 q 355 135 229 324 q 225 320 161 225 q 104 139 90 139 q 93 139 52 162 q 19 180 19 182 q 67 254 125 344 q 154 396 185 486 q 188 495 191 495 l 269 495 q 272 495 275 486 q 291 426 333 349 q 341 334 445 177 z"},"0":{"x_min":0,"x_max":597,"ha":597,"o":"m 569 294 q 569 171 496 82 q 418 -13 298 -13 q 178 -13 100 82 q 27 171 27 294 q 27 417 100 505 q 178 599 298 599 q 418 599 496 505 q 569 417 569 294 z m 454 294 q 454 369 415 424 q 371 484 298 484 q 225 484 182 424 q 143 370 143 294 q 143 219 182 164 q 226 102 298 102 q 367 102 413 165 q 454 222 454 294 z"},"F":{"x_min":0,"x_max":533,"ha":533,"o":"m 520 585 q 520 576 510 576 q 472 576 385 580 q 304 584 260 583 l 224 583 q 190 582 188 581 q 178 577 178 550 l 178 433 q 178 399 192 399 q 240 399 335 404 q 431 408 478 408 q 488 408 488 400 q 488 392 487 376 q 486 359 486 351 q 486 342 487 324 q 488 307 488 298 q 488 292 478 292 q 444 292 375 294 q 307 296 272 296 q 209 296 201 295 q 179 292 179 277 q 179 233 182 145 q 184 57 184 13 q 184 -1 172 -1 q 163 -1 143 1 q 124 3 114 3 q 105 3 88 1 q 71 0 63 0 q 51 0 51 11 q 51 65 55 174 q 60 283 60 337 q 60 387 50 664 l 50 670 q 49 681 62 682 q 66 682 124 681 q 201 679 266 680 q 354 681 491 690 q 510 691 512 674 q 512 661 514 634 q 520 596 520 585 z"},"`":{"x_min":0,"x_max":349,"ha":349,"o":"m 281 583 q 281 578 274 557 q 268 537 265 537 q 254 537 257 536 q 86 616 31 653 q 29 654 26 659 q 30 667 54 689 q 79 711 86 711 q 98 711 176 661 q 248 616 278 592 q 282 589 281 583 z"},"k":{"x_min":0,"x_max":547,"ha":547,"o":"m 530 335 q 530 208 412 165 q 412 140 461 75 q 510 10 510 10 q 510 2 461 0 q 429 -1 413 -1 q 378 -1 369 13 q 346 52 297 127 q 291 136 191 134 l 172 134 l 172 13 q 172 -2 161 -2 q 146 -2 115 -1 q 84 -1 69 -1 q 58 -1 58 18 l 58 322 q 58 381 53 500 q 49 619 49 678 q 49 687 58 688 q 74 688 107 690 q 114 690 136 693 q 153 696 164 696 q 171 696 171 684 q 171 658 168 605 q 166 553 166 527 l 166 401 q 166 391 170 391 q 182 400 206 419 q 288 483 362 483 q 434 483 480 446 q 530 405 530 335 z m 412 312 q 412 382 322 382 q 254 382 170 292 l 170 219 q 209 212 266 212 q 322 212 362 233 q 412 260 412 312 z"},"u":{"x_min":0,"x_max":552,"ha":552,"o":"m 502 443 q 502 407 499 335 q 496 263 496 227 q 496 191 498 120 q 500 49 500 14 q 500 4 491 1 q 487 0 392 0 q 386 0 385 37 q 384 73 379 73 q 377 73 372 69 q 291 -2 211 -2 q 103 -2 68 76 q 47 125 47 250 q 47 363 65 442 q 69 461 81 461 q 95 461 124 460 q 152 460 166 460 q 176 460 176 449 q 176 430 169 386 q 163 338 162 319 q 161 290 161 254 q 161 169 173 140 q 194 87 266 87 q 297 87 339 117 q 383 149 385 178 q 387 215 387 436 q 387 460 407 460 l 488 460 q 502 460 502 443 z"},"]":{"x_min":0,"x_max":359,"ha":359,"o":"m 297 672 q 297 601 291 457 q 285 313 285 242 q 285 179 290 53 q 294 -73 294 -136 q 294 -155 280 -155 q 260 -155 220 -153 q 180 -152 160 -152 q 138 -152 93 -154 q 47 -156 25 -156 q 15 -156 15 -146 q 15 -137 14 -116 q 13 -95 13 -85 q 13 -77 23 -77 q 43 -77 85 -81 q 126 -84 147 -84 q 156 -84 159 -84 q 171 -82 173 -67 q 175 -48 177 46 q 180 166 180 242 q 180 291 176 459 q 176 506 171 601 q 170 614 164 617 q 161 619 146 619 q 125 619 84 615 q 43 612 23 612 q 13 612 13 623 q 13 633 14 652 q 14 671 14 681 q 14 691 25 691 q 47 691 93 689 q 138 688 160 688 q 180 688 221 689 q 262 691 282 691 q 297 691 297 672 z"},"U":{"x_min":0,"x_max":660,"ha":660,"o":"m 610 674 q 610 618 606 505 q 601 392 601 335 q 601 316 602 280 q 602 243 602 225 q 602 123 583 83 q 554 22 469 1 q 417 -12 323 -12 q 152 -12 99 44 q 58 88 58 220 q 58 236 59 275 q 59 313 59 335 q 59 393 54 547 q 54 587 50 667 q 49 673 49 675 q 49 685 62 685 q 82 685 116 685 q 156 684 170 684 q 181 684 181 675 q 181 601 178 452 q 175 303 175 229 q 175 145 212 115 q 245 89 331 89 q 410 89 443 110 q 485 137 485 211 q 485 288 482 443 q 480 597 480 674 q 480 682 494 684 q 504 686 523 684 q 546 682 545 682 q 554 682 572 684 q 589 685 598 685 q 610 685 610 674 z"},"o":{"x_min":0,"x_max":511,"ha":511,"o":"m 492 238 q 492 136 425 63 q 357 -11 256 -11 q 154 -11 86 63 q 19 135 19 237 q 19 339 86 411 q 155 484 256 484 q 356 484 425 411 q 492 339 492 238 z m 389 237 q 389 296 353 338 q 314 383 256 383 q 197 383 159 339 q 122 296 122 237 q 122 178 159 135 q 198 90 256 90 q 314 90 353 135 q 389 178 389 237 z"},"N":{"x_min":0,"x_max":718,"ha":718,"o":"m 665 674 q 665 618 661 505 q 657 392 657 335 q 657 282 658 176 q 659 69 659 16 q 659 0 647 0 q 640 0 625 1 q 610 3 603 3 q 595 3 579 1 q 563 0 555 0 q 546 0 534 16 q 429 158 214 440 q 181 483 176 488 q 171 488 171 468 q 171 393 173 242 q 176 91 176 16 q 176 0 166 0 q 158 0 141 1 q 124 3 115 3 q 106 3 89 1 q 72 0 63 0 q 51 0 51 10 q 51 63 56 172 q 61 280 61 334 q 61 393 57 547 q 56 587 52 667 l 51 673 q 51 681 63 681 q 95 682 113 683 q 120 684 139 687 q 155 690 164 690 q 168 690 179 676 q 292 521 523 217 q 533 204 542 195 q 545 215 545 289 q 545 352 541 479 q 536 606 536 669 q 536 685 546 685 q 555 685 573 684 q 590 682 599 682 q 608 682 627 684 q 646 685 655 685 q 665 685 665 674 z"},"+":{"x_min":0,"x_max":404,"ha":404,"o":"m 383 336 q 383 328 376 255 q 375 251 369 251 q 345 251 305 252 q 257 254 241 254 q 241 229 243 179 q 244 130 244 105 q 244 86 195 86 q 163 86 152 92 q 147 95 147 104 q 146 132 147 179 q 149 236 149 254 q 136 254 87 252 q 49 251 25 251 q 17 251 17 258 q 17 261 21 297 q 21 316 23 339 q 26 344 34 344 q 20 344 149 341 q 149 365 148 414 q 148 462 148 487 q 148 495 157 495 q 169 495 195 496 q 220 497 232 497 q 244 497 244 483 q 244 459 243 412 q 241 365 241 341 q 263 341 308 341 q 352 342 374 342 q 383 342 383 336 z"},"G":{"x_min":0,"x_max":675,"ha":675,"o":"m 648 24 q 649 13 636 13 q 629 13 601 27 q 573 41 565 47 q 475 -14 352 -14 q 208 -14 116 93 q 28 195 28 341 q 28 490 114 592 q 206 699 352 699 q 427 699 497 664 q 566 628 608 567 q 614 558 614 553 q 614 546 579 508 q 544 469 539 469 q 535 469 509 499 q 478 535 450 554 q 405 584 357 584 q 265 584 206 507 q 152 437 152 341 q 152 248 207 176 q 267 98 358 98 q 447 98 522 147 q 521 160 514 240 q 508 296 508 332 q 508 340 519 340 q 528 340 546 339 q 565 338 574 338 q 583 338 603 339 q 622 340 631 340 q 641 340 641 324 q 641 307 640 273 q 639 238 639 221 q 639 151 648 31 z"},"q":{"x_min":0,"x_max":560,"ha":560,"o":"m 524 462 q 524 460 523 453 q 505 360 505 174 q 505 123 508 20 q 511 -83 511 -135 q 511 -147 501 -147 q 485 -147 453 -149 q 421 -150 405 -150 q 400 -150 400 -139 l 400 54 q 400 62 396 62 q 392 60 387 54 q 332 -12 245 -12 q 151 -12 87 66 q 27 139 27 235 q 27 335 85 408 q 147 485 245 485 q 314 485 361 449 q 380 431 400 412 q 403 413 403 478 q 403 482 411 482 q 451 482 518 469 q 524 468 524 462 z m 401 238 q 401 300 367 343 q 331 390 270 390 q 212 390 173 343 q 137 299 137 240 q 137 179 174 136 q 213 90 273 90 q 334 90 369 134 q 401 175 401 238 z"},"d":{"x_min":0,"x_max":556,"ha":556,"o":"m 519 681 q 519 618 513 492 q 508 367 508 304 q 508 111 516 12 l 517 6 q 517 1 503 0 q 494 -1 477 0 q 457 1 458 1 q 451 1 437 0 q 422 -2 415 -2 q 408 -2 407 32 q 406 66 403 66 q 400 65 396 60 q 329 -12 242 -12 q 144 -12 80 63 q 20 134 20 234 q 20 338 81 409 q 144 483 246 483 q 308 483 354 447 q 375 429 395 410 q 399 412 399 417 l 399 575 q 399 591 397 624 q 396 657 396 673 q 396 685 404 685 q 422 685 458 688 q 493 691 511 691 q 519 691 519 681 z m 397 237 q 397 295 361 340 q 322 387 265 387 q 205 387 166 340 q 129 296 129 235 q 129 176 167 133 q 207 87 265 87 q 324 87 362 133 q 397 177 397 237 z"},"1":{"x_min":0,"x_max":280,"ha":280,"o":"m 225 578 q 225 575 224 569 q 213 480 213 279 q 213 236 214 149 q 215 63 215 20 q 215 1 199 1 q 183 1 152 0 q 122 -1 107 -1 q 92 -1 92 11 q 92 21 98 191 q 101 273 101 430 q 101 441 96 441 q 84 441 59 434 q 34 426 22 426 q 11 426 11 432 q 11 438 12 449 q 13 461 13 467 q 13 472 12 483 q 11 494 11 499 q 11 505 22 510 q 50 521 82 550 q 83 551 109 579 q 131 603 133 603 q 133 603 174 594 q 189 592 218 587 q 225 585 225 578 z"},"5":{"x_min":0,"x_max":476,"ha":476,"o":"m 437 198 q 437 92 368 38 q 305 -13 197 -13 q 162 -13 94 0 q 9 15 9 33 q 9 50 16 89 q 24 134 32 134 q 25 134 76 108 q 126 81 171 81 q 232 81 270 105 q 315 135 315 192 q 315 288 174 288 q 156 288 120 282 q 84 277 70 277 q 59 277 56 283 q 55 286 55 292 q 55 302 56 321 q 56 342 56 350 q 56 385 55 457 q 54 528 54 564 q 54 571 65 581 q 76 591 83 591 q 108 591 160 589 q 211 586 237 586 q 261 586 311 589 q 360 591 385 591 q 396 591 396 582 q 396 572 392 544 q 387 517 387 503 q 387 498 380 492 q 372 486 366 486 q 341 486 290 489 q 240 492 214 492 q 178 492 151 490 q 151 450 146 367 q 161 367 190 371 q 220 374 235 374 q 325 374 378 333 q 437 286 437 198 z"}}}
